# xmcd CD database file
#
# Track frame offsets:
#	150
#	27640
#	52951
#	63137
#	74777
#	96885
#	103153
#	136417
#	159442
#	167919
#	183467
#	190150
#
# Disc length: 2611 seconds
#
# Revision: 0
# Processed by: cddbd v1.5PL3 Copyright (c) Steve Scherf et al.
# Submitted via: CDex 1.51
#
DISCID=ad0a310c
DTITLE=Lupa Santiago and Pollaco - Lazz em Dobro
DYEAR=2004
DGENRE=Jazz
TTITLE0=Parabéns
TTITLE1=Marrom
TTITLE2=Frio
TTITLE3=De Volta
TTITLE4=Desfarçatez
TTITLE5=Free Way
TTITLE6=Summer Camp Band
TTITLE7=Samba do Zé
TTITLE8=Frito
TTITLE9=Brisa Boa (das tardes de Itapira)
TTITLE10=Beijo Roubado
TTITLE11=Tchau Zé
EXTD=YEAR: 2004
EXTT0=
EXTT1=
EXTT2=
EXTT3=
EXTT4=
EXTT5=
EXTT6=
EXTT7=
EXTT8=
EXTT9=
EXTT10=
EXTT11=
PLAYORDER=
